<mxfile host="app.diagrams.net" modified="2024-06-29T05:58:10.405Z" agent="Mozilla/5.0 (Windows NT 10.0; Win64; x64) AppleWebKit/537.36 (KHTML, like Gecko) Chrome/125.0.0.0 Safari/537.36" etag="fLquB54N2tcMj3wle2Ag" version="24.0.7" type="github">
  <diagram id="kgpKYQtTHZ0yAKxKKP6v" name="Page-1">
    <mxGraphModel dx="1509" dy="785" grid="1" gridSize="10" guides="1" tooltips="1" connect="1" arrows="1" fold="1" page="1" pageScale="1" pageWidth="850" pageHeight="1100" math="0" shadow="0">
      <root>
        <mxCell id="0" />
        <mxCell id="1" parent="0" />
        <mxCell id="nuF2VadyYRnX8jqY9pPj-24" value="" style="rounded=0;whiteSpace=wrap;html=1;fillColor=none;" vertex="1" parent="1">
          <mxGeometry x="115" y="2335" width="195" height="85" as="geometry" />
        </mxCell>
        <mxCell id="MvzRaNbtxcJOoFOf6ha5-1" value="" style="rounded=0;whiteSpace=wrap;html=1;fillColor=none;" parent="1" vertex="1">
          <mxGeometry x="540" y="1010" width="650" height="740" as="geometry" />
        </mxCell>
        <mxCell id="MvzRaNbtxcJOoFOf6ha5-18" value="" style="edgeStyle=orthogonalEdgeStyle;rounded=0;orthogonalLoop=1;jettySize=auto;html=1;" parent="1" source="MvzRaNbtxcJOoFOf6ha5-14" target="MvzRaNbtxcJOoFOf6ha5-17" edge="1">
          <mxGeometry relative="1" as="geometry" />
        </mxCell>
        <mxCell id="MvzRaNbtxcJOoFOf6ha5-14" value="" style="rounded=0;whiteSpace=wrap;html=1;fillColor=none;" parent="1" vertex="1">
          <mxGeometry x="570" y="1365" width="490" height="105" as="geometry" />
        </mxCell>
        <mxCell id="ArKfx6dNiAE9RJszdljW-33" value="" style="rounded=0;whiteSpace=wrap;html=1;sketch=0;fillColor=none;" parent="1" vertex="1">
          <mxGeometry x="980" y="80" width="220" height="540" as="geometry" />
        </mxCell>
        <mxCell id="3nuBFxr9cyL0pnOWT2aG-1" value="chain.go&#xa;(由主线程&#xa;main开启的Serve服务出发)" style="shape=umlLifeline;perimeter=lifelinePerimeter;container=1;collapsible=0;recursiveResize=0;rounded=0;shadow=0;strokeWidth=1;" parent="1" vertex="1">
          <mxGeometry x="10" y="160" width="210" height="300" as="geometry" />
        </mxCell>
        <mxCell id="O9rQm846-6DMJeRLNn3o-19" style="edgeStyle=orthogonalEdgeStyle;rounded=0;orthogonalLoop=1;jettySize=auto;html=1;entryX=0.503;entryY=0.402;entryDx=0;entryDy=0;entryPerimeter=0;" parent="3nuBFxr9cyL0pnOWT2aG-1" source="3nuBFxr9cyL0pnOWT2aG-2" target="3nuBFxr9cyL0pnOWT2aG-1" edge="1">
          <mxGeometry relative="1" as="geometry" />
        </mxCell>
        <mxCell id="3nuBFxr9cyL0pnOWT2aG-2" value="处理普通消息&#xa;Order" style="points=[];perimeter=orthogonalPerimeter;rounded=0;shadow=0;strokeWidth=1;" parent="3nuBFxr9cyL0pnOWT2aG-1" vertex="1">
          <mxGeometry x="60" y="70" width="90" height="30" as="geometry" />
        </mxCell>
        <mxCell id="O9rQm846-6DMJeRLNn3o-5" value="消息提交统一方法&#xa;Submit" style="points=[];perimeter=orthogonalPerimeter;rounded=0;shadow=0;strokeWidth=1;" parent="3nuBFxr9cyL0pnOWT2aG-1" vertex="1">
          <mxGeometry x="50" y="120" width="110" height="60" as="geometry" />
        </mxCell>
        <mxCell id="3nuBFxr9cyL0pnOWT2aG-5" value="chain.go(thread 2)" style="shape=umlLifeline;perimeter=lifelinePerimeter;container=1;collapsible=0;recursiveResize=0;rounded=0;shadow=0;strokeWidth=1;" parent="1" vertex="1">
          <mxGeometry x="260" y="160" width="120" height="325" as="geometry" />
        </mxCell>
        <mxCell id="O9rQm846-6DMJeRLNn3o-24" value="" style="edgeStyle=orthogonalEdgeStyle;rounded=0;orthogonalLoop=1;jettySize=auto;html=1;" parent="3nuBFxr9cyL0pnOWT2aG-5" source="O9rQm846-6DMJeRLNn3o-17" target="O9rQm846-6DMJeRLNn3o-23" edge="1">
          <mxGeometry relative="1" as="geometry" />
        </mxCell>
        <mxCell id="O9rQm846-6DMJeRLNn3o-17" value="[cs.Chain.start()&lt;br&gt;go c.run()]&lt;br&gt;run()&lt;br&gt;s&amp;lt;-submitC" style="whiteSpace=wrap;html=1;rounded=0;shadow=0;strokeWidth=1;" parent="3nuBFxr9cyL0pnOWT2aG-5" vertex="1">
          <mxGeometry y="60" width="120" height="60" as="geometry" />
        </mxCell>
        <mxCell id="O9rQm846-6DMJeRLNn3o-30" value="" style="edgeStyle=orthogonalEdgeStyle;rounded=0;orthogonalLoop=1;jettySize=auto;html=1;" parent="3nuBFxr9cyL0pnOWT2aG-5" source="O9rQm846-6DMJeRLNn3o-23" target="O9rQm846-6DMJeRLNn3o-29" edge="1">
          <mxGeometry relative="1" as="geometry" />
        </mxCell>
        <mxCell id="O9rQm846-6DMJeRLNn3o-31" value="区块组 batches" style="edgeLabel;html=1;align=center;verticalAlign=middle;resizable=0;points=[];" parent="O9rQm846-6DMJeRLNn3o-30" vertex="1" connectable="0">
          <mxGeometry x="-0.4447" relative="1" as="geometry">
            <mxPoint as="offset" />
          </mxGeometry>
        </mxCell>
        <mxCell id="O9rQm846-6DMJeRLNn3o-23" value="排序方法&lt;br&gt;c.orderer(s.req)" style="whiteSpace=wrap;html=1;rounded=0;shadow=0;strokeWidth=1;" parent="3nuBFxr9cyL0pnOWT2aG-5" vertex="1">
          <mxGeometry y="140" width="120" height="50" as="geometry" />
        </mxCell>
        <mxCell id="O9rQm846-6DMJeRLNn3o-29" value="提交区块&lt;br&gt;c.propose(propC, bc, batches...)" style="whiteSpace=wrap;html=1;rounded=0;shadow=0;strokeWidth=1;" parent="3nuBFxr9cyL0pnOWT2aG-5" vertex="1">
          <mxGeometry y="230" width="120" height="60" as="geometry" />
        </mxCell>
        <mxCell id="O9rQm846-6DMJeRLNn3o-1" value="普通交易消息收到后" style="rounded=0;whiteSpace=wrap;html=1;" parent="1" vertex="1">
          <mxGeometry x="20" y="50" width="120" height="60" as="geometry" />
        </mxCell>
        <mxCell id="O9rQm846-6DMJeRLNn3o-18" value="" style="edgeStyle=orthogonalEdgeStyle;rounded=0;orthogonalLoop=1;jettySize=auto;html=1;entryX=0;entryY=0.5;entryDx=0;entryDy=0;exitX=1.007;exitY=0.286;exitDx=0;exitDy=0;exitPerimeter=0;" parent="1" source="O9rQm846-6DMJeRLNn3o-5" target="O9rQm846-6DMJeRLNn3o-17" edge="1">
          <mxGeometry relative="1" as="geometry">
            <mxPoint x="110" y="290" as="sourcePoint" />
            <Array as="points">
              <mxPoint x="200" y="297" />
              <mxPoint x="200" y="250" />
            </Array>
          </mxGeometry>
        </mxCell>
        <mxCell id="O9rQm846-6DMJeRLNn3o-28" value="c.submitC" style="edgeLabel;html=1;align=center;verticalAlign=middle;resizable=0;points=[];" parent="O9rQm846-6DMJeRLNn3o-18" vertex="1" connectable="0">
          <mxGeometry x="-0.1027" y="1" relative="1" as="geometry">
            <mxPoint y="-20" as="offset" />
          </mxGeometry>
        </mxCell>
        <mxCell id="O9rQm846-6DMJeRLNn3o-21" style="edgeStyle=orthogonalEdgeStyle;rounded=0;orthogonalLoop=1;jettySize=auto;html=1;" parent="1" source="O9rQm846-6DMJeRLNn3o-17" edge="1">
          <mxGeometry relative="1" as="geometry">
            <mxPoint x="170" y="314" as="targetPoint" />
            <Array as="points">
              <mxPoint x="230" y="260" />
              <mxPoint x="230" y="314" />
            </Array>
          </mxGeometry>
        </mxCell>
        <mxCell id="O9rQm846-6DMJeRLNn3o-22" value="s.leader" style="edgeLabel;html=1;align=center;verticalAlign=middle;resizable=0;points=[];" parent="O9rQm846-6DMJeRLNn3o-21" vertex="1" connectable="0">
          <mxGeometry x="-0.3112" y="-1" relative="1" as="geometry">
            <mxPoint x="1" as="offset" />
          </mxGeometry>
        </mxCell>
        <mxCell id="O9rQm846-6DMJeRLNn3o-51" value="" style="edgeStyle=orthogonalEdgeStyle;rounded=0;orthogonalLoop=1;jettySize=auto;html=1;" parent="1" source="O9rQm846-6DMJeRLNn3o-32" target="O9rQm846-6DMJeRLNn3o-50" edge="1">
          <mxGeometry relative="1" as="geometry" />
        </mxCell>
        <mxCell id="O9rQm846-6DMJeRLNn3o-53" style="edgeStyle=orthogonalEdgeStyle;rounded=0;orthogonalLoop=1;jettySize=auto;html=1;entryX=0;entryY=0.5;entryDx=0;entryDy=0;" parent="1" source="O9rQm846-6DMJeRLNn3o-32" target="O9rQm846-6DMJeRLNn3o-52" edge="1">
          <mxGeometry relative="1" as="geometry" />
        </mxCell>
        <mxCell id="O9rQm846-6DMJeRLNn3o-54" value="ch" style="edgeLabel;html=1;align=center;verticalAlign=middle;resizable=0;points=[];" parent="O9rQm846-6DMJeRLNn3o-53" vertex="1" connectable="0">
          <mxGeometry x="-0.0931" y="-1" relative="1" as="geometry">
            <mxPoint as="offset" />
          </mxGeometry>
        </mxCell>
        <mxCell id="O9rQm846-6DMJeRLNn3o-32" value="遍历batches。每个batch创建一个区块b&lt;br&gt;ch&amp;lt;-b" style="whiteSpace=wrap;html=1;rounded=0;shadow=0;strokeWidth=1;" parent="1" vertex="1">
          <mxGeometry x="260" y="485" width="120" height="60" as="geometry" />
        </mxCell>
        <mxCell id="O9rQm846-6DMJeRLNn3o-33" value="" style="edgeStyle=orthogonalEdgeStyle;rounded=0;orthogonalLoop=1;jettySize=auto;html=1;" parent="1" source="O9rQm846-6DMJeRLNn3o-29" target="O9rQm846-6DMJeRLNn3o-32" edge="1">
          <mxGeometry relative="1" as="geometry" />
        </mxCell>
        <mxCell id="O9rQm846-6DMJeRLNn3o-42" value="&lt;span style=&quot;&quot;&gt;chain.go(thread 3)&lt;/span&gt;" style="rounded=0;whiteSpace=wrap;html=1;" parent="1" vertex="1">
          <mxGeometry x="460" y="160" width="130" height="40" as="geometry" />
        </mxCell>
        <mxCell id="O9rQm846-6DMJeRLNn3o-49" value="" style="endArrow=none;dashed=1;html=1;rounded=0;entryX=0.5;entryY=1;entryDx=0;entryDy=0;" parent="1" target="O9rQm846-6DMJeRLNn3o-42" edge="1">
          <mxGeometry width="50" height="50" relative="1" as="geometry">
            <mxPoint x="525" y="320" as="sourcePoint" />
            <mxPoint x="570" y="220" as="targetPoint" />
          </mxGeometry>
        </mxCell>
        <mxCell id="O9rQm846-6DMJeRLNn3o-50" value="如果是配置消息或者普通消息提交中的区块超过提交中的区块数量则清空submitC" style="whiteSpace=wrap;html=1;rounded=0;shadow=0;strokeWidth=1;" parent="1" vertex="1">
          <mxGeometry x="260" y="590" width="120" height="60" as="geometry" />
        </mxCell>
        <mxCell id="O9rQm846-6DMJeRLNn3o-61" value="" style="edgeStyle=orthogonalEdgeStyle;rounded=0;orthogonalLoop=1;jettySize=auto;html=1;" parent="1" source="O9rQm846-6DMJeRLNn3o-52" target="O9rQm846-6DMJeRLNn3o-60" edge="1">
          <mxGeometry relative="1" as="geometry" />
        </mxCell>
        <mxCell id="O9rQm846-6DMJeRLNn3o-52" value="&lt;span style=&quot;&quot;&gt;[cs.Chain.start()&lt;/span&gt;&lt;br style=&quot;&quot;&gt;&lt;span style=&quot;&quot;&gt;go c.run()&lt;br&gt;go func()]&lt;br&gt;b:= &amp;lt;-ch&lt;br&gt;&lt;/span&gt;" style="rounded=0;whiteSpace=wrap;html=1;" parent="1" vertex="1">
          <mxGeometry x="465" y="230" width="120" height="60" as="geometry" />
        </mxCell>
        <mxCell id="O9rQm846-6DMJeRLNn3o-57" value="&lt;span style=&quot;&quot;&gt;raft/node.go(thread 3)&lt;/span&gt;" style="rounded=0;whiteSpace=wrap;html=1;" parent="1" vertex="1">
          <mxGeometry x="640" y="160" width="130" height="40" as="geometry" />
        </mxCell>
        <mxCell id="O9rQm846-6DMJeRLNn3o-59" value="" style="endArrow=none;dashed=1;html=1;rounded=0;entryX=0.5;entryY=1;entryDx=0;entryDy=0;startArrow=none;" parent="1" edge="1">
          <mxGeometry width="50" height="50" relative="1" as="geometry">
            <mxPoint x="705" y="590" as="sourcePoint" />
            <mxPoint x="704.58" y="200" as="targetPoint" />
          </mxGeometry>
        </mxCell>
        <mxCell id="O9rQm846-6DMJeRLNn3o-63" value="" style="edgeStyle=orthogonalEdgeStyle;rounded=0;orthogonalLoop=1;jettySize=auto;html=1;" parent="1" source="O9rQm846-6DMJeRLNn3o-60" target="O9rQm846-6DMJeRLNn3o-62" edge="1">
          <mxGeometry relative="1" as="geometry" />
        </mxCell>
        <mxCell id="O9rQm846-6DMJeRLNn3o-60" value="b序列化为data后，处理区块内容&lt;br&gt;Propose(ctx , data)" style="whiteSpace=wrap;html=1;rounded=0;" parent="1" vertex="1">
          <mxGeometry x="645" y="230" width="120" height="60" as="geometry" />
        </mxCell>
        <mxCell id="O9rQm846-6DMJeRLNn3o-65" value="" style="edgeStyle=orthogonalEdgeStyle;rounded=0;orthogonalLoop=1;jettySize=auto;html=1;" parent="1" source="O9rQm846-6DMJeRLNn3o-62" target="O9rQm846-6DMJeRLNn3o-64" edge="1">
          <mxGeometry relative="1" as="geometry" />
        </mxCell>
        <mxCell id="O9rQm846-6DMJeRLNn3o-62" value="stepWait()&lt;br&gt;打包为MsgProp类型数据m，包含在Entries中" style="whiteSpace=wrap;html=1;rounded=0;" parent="1" vertex="1">
          <mxGeometry x="645" y="320" width="120" height="60" as="geometry" />
        </mxCell>
        <mxCell id="O9rQm846-6DMJeRLNn3o-70" value="" style="edgeStyle=orthogonalEdgeStyle;rounded=0;orthogonalLoop=1;jettySize=auto;html=1;entryX=0;entryY=0.5;entryDx=0;entryDy=0;" parent="1" source="O9rQm846-6DMJeRLNn3o-64" target="O9rQm846-6DMJeRLNn3o-69" edge="1">
          <mxGeometry relative="1" as="geometry" />
        </mxCell>
        <mxCell id="ArKfx6dNiAE9RJszdljW-4" value="propc" style="edgeLabel;html=1;align=center;verticalAlign=middle;resizable=0;points=[];" parent="O9rQm846-6DMJeRLNn3o-70" vertex="1" connectable="0">
          <mxGeometry x="0.0957" relative="1" as="geometry">
            <mxPoint y="1" as="offset" />
          </mxGeometry>
        </mxCell>
        <mxCell id="O9rQm846-6DMJeRLNn3o-64" value="stepWithWaitOption()&lt;br&gt;pm包装消息数据m发给node.propc&lt;br&gt;n.propc &amp;lt;- pm{m:m}" style="whiteSpace=wrap;html=1;rounded=0;" parent="1" vertex="1">
          <mxGeometry x="645" y="425" width="120" height="85" as="geometry" />
        </mxCell>
        <mxCell id="O9rQm846-6DMJeRLNn3o-67" value="&lt;span style=&quot;&quot;&gt;raft/node.go(thread 4)&lt;/span&gt;" style="rounded=0;whiteSpace=wrap;html=1;" parent="1" vertex="1">
          <mxGeometry x="830" y="160" width="130" height="40" as="geometry" />
        </mxCell>
        <mxCell id="O9rQm846-6DMJeRLNn3o-68" value="" style="endArrow=none;dashed=1;html=1;rounded=0;startArrow=none;" parent="1" edge="1">
          <mxGeometry width="50" height="50" relative="1" as="geometry">
            <mxPoint x="895" y="510" as="sourcePoint" />
            <mxPoint x="895" y="200" as="targetPoint" />
          </mxGeometry>
        </mxCell>
        <mxCell id="ArKfx6dNiAE9RJszdljW-2" value="" style="edgeStyle=orthogonalEdgeStyle;rounded=0;orthogonalLoop=1;jettySize=auto;html=1;" parent="1" source="O9rQm846-6DMJeRLNn3o-69" target="ArKfx6dNiAE9RJszdljW-1" edge="1">
          <mxGeometry relative="1" as="geometry" />
        </mxCell>
        <mxCell id="O9rQm846-6DMJeRLNn3o-69" value="来自fabric的node.go中raft.StartNode或者raft.restartNode&lt;br&gt;go node.run(raft)" style="whiteSpace=wrap;html=1;rounded=0;" parent="1" vertex="1">
          <mxGeometry x="835" y="220" width="120" height="60" as="geometry" />
        </mxCell>
        <mxCell id="ArKfx6dNiAE9RJszdljW-6" value="" style="edgeStyle=orthogonalEdgeStyle;rounded=0;orthogonalLoop=1;jettySize=auto;html=1;entryX=0;entryY=0.5;entryDx=0;entryDy=0;" parent="1" source="ArKfx6dNiAE9RJszdljW-1" target="ArKfx6dNiAE9RJszdljW-5" edge="1">
          <mxGeometry relative="1" as="geometry" />
        </mxCell>
        <mxCell id="ArKfx6dNiAE9RJszdljW-1" value="pm := &amp;lt;- propc&lt;br&gt;r.Step(pm.m)" style="whiteSpace=wrap;html=1;rounded=0;" parent="1" vertex="1">
          <mxGeometry x="835" y="310" width="120" height="60" as="geometry" />
        </mxCell>
        <mxCell id="ArKfx6dNiAE9RJszdljW-8" value="&lt;span style=&quot;&quot;&gt;raft/raft.go(thread 4)&lt;/span&gt;" style="rounded=0;whiteSpace=wrap;html=1;" parent="1" vertex="1">
          <mxGeometry x="1035" y="160" width="130" height="40" as="geometry" />
        </mxCell>
        <mxCell id="ArKfx6dNiAE9RJszdljW-17" value="" style="endArrow=none;dashed=1;html=1;rounded=0;shadow=0;fontFamily=Helvetica;fontSize=11;shape=connector;entryX=0.5;entryY=1;entryDx=0;entryDy=0;startArrow=none;" parent="1" source="ArKfx6dNiAE9RJszdljW-5" target="ArKfx6dNiAE9RJszdljW-8" edge="1">
          <mxGeometry width="50" height="50" relative="1" as="geometry">
            <mxPoint x="1100" y="580" as="sourcePoint" />
            <mxPoint x="1200" y="340" as="targetPoint" />
          </mxGeometry>
        </mxCell>
        <mxCell id="ArKfx6dNiAE9RJszdljW-21" value="" style="edgeStyle=none;shape=connector;rounded=0;orthogonalLoop=1;jettySize=auto;html=1;shadow=0;dashed=1;fontFamily=Helvetica;fontSize=11;startArrow=none;endArrow=none;endFill=1;" parent="1" source="ArKfx6dNiAE9RJszdljW-5" target="ArKfx6dNiAE9RJszdljW-20" edge="1">
          <mxGeometry relative="1" as="geometry" />
        </mxCell>
        <mxCell id="ArKfx6dNiAE9RJszdljW-26" style="edgeStyle=none;shape=connector;rounded=0;orthogonalLoop=1;jettySize=auto;html=1;exitX=0.5;exitY=1;exitDx=0;exitDy=0;entryX=0.5;entryY=0;entryDx=0;entryDy=0;shadow=0;dashed=1;fontFamily=Helvetica;fontSize=11;startArrow=none;endArrow=none;endFill=1;" parent="1" source="ArKfx6dNiAE9RJszdljW-5" target="ArKfx6dNiAE9RJszdljW-20" edge="1">
          <mxGeometry relative="1" as="geometry" />
        </mxCell>
        <mxCell id="ArKfx6dNiAE9RJszdljW-5" value="r.Step()中执行r.step()在ledaer中为StepLeader" style="whiteSpace=wrap;html=1;rounded=0;" parent="1" vertex="1">
          <mxGeometry x="1040" y="220" width="120" height="60" as="geometry" />
        </mxCell>
        <mxCell id="ArKfx6dNiAE9RJszdljW-32" value="" style="edgeStyle=orthogonalEdgeStyle;curved=0;rounded=1;sketch=0;orthogonalLoop=1;jettySize=auto;html=1;" parent="1" source="ArKfx6dNiAE9RJszdljW-20" target="ArKfx6dNiAE9RJszdljW-31" edge="1">
          <mxGeometry relative="1" as="geometry" />
        </mxCell>
        <mxCell id="ArKfx6dNiAE9RJszdljW-20" value="追加消息到ledaer日志中，但是没有commit&lt;br&gt;r.appendEntry(entries)" style="whiteSpace=wrap;html=1;rounded=0;" parent="1" vertex="1">
          <mxGeometry x="1040" y="310" width="120" height="60" as="geometry" />
        </mxCell>
        <mxCell id="ArKfx6dNiAE9RJszdljW-22" value="" style="endArrow=none;dashed=1;html=1;rounded=0;shadow=0;fontFamily=Helvetica;fontSize=11;shape=connector;entryX=0.5;entryY=1;entryDx=0;entryDy=0;" parent="1" target="ArKfx6dNiAE9RJszdljW-20" edge="1">
          <mxGeometry width="50" height="50" relative="1" as="geometry">
            <mxPoint x="1100" y="580" as="sourcePoint" />
            <mxPoint x="1100" y="280" as="targetPoint" />
          </mxGeometry>
        </mxCell>
        <mxCell id="ArKfx6dNiAE9RJszdljW-28" value="" style="endArrow=classic;html=1;rounded=0;shadow=0;fontFamily=Helvetica;fontSize=11;exitX=0.5;exitY=1;exitDx=0;exitDy=0;entryX=0.5;entryY=0;entryDx=0;entryDy=0;" parent="1" source="ArKfx6dNiAE9RJszdljW-5" target="ArKfx6dNiAE9RJszdljW-20" edge="1">
          <mxGeometry width="50" height="50" relative="1" as="geometry">
            <mxPoint x="890" y="350" as="sourcePoint" />
            <mxPoint x="1050" y="430" as="targetPoint" />
          </mxGeometry>
        </mxCell>
        <mxCell id="ArKfx6dNiAE9RJszdljW-31" value="将日志消息MsgApp发送到其它的节点&lt;br&gt;b.bcastAppend()&lt;br&gt;发送Index(发送的节点的日志最高的位置)，LogTerm, Entries, commit(日志最高的位置)" style="whiteSpace=wrap;html=1;rounded=0;" parent="1" vertex="1">
          <mxGeometry x="1040" y="400" width="120" height="130" as="geometry" />
        </mxCell>
        <mxCell id="ArKfx6dNiAE9RJszdljW-34" value="fabric消息处理" style="text;html=1;strokeColor=none;fillColor=none;align=center;verticalAlign=middle;whiteSpace=wrap;rounded=0;sketch=0;" parent="1" vertex="1">
          <mxGeometry x="1000" y="90" width="80" height="30" as="geometry" />
        </mxCell>
        <mxCell id="ArKfx6dNiAE9RJszdljW-35" value="等待follower返回MsgAppRes，然后如果有超过半数同意的话，就通知所有节点更新日志。" style="whiteSpace=wrap;html=1;rounded=0;" parent="1" vertex="1">
          <mxGeometry x="1270" y="240" width="120" height="130" as="geometry" />
        </mxCell>
        <mxCell id="ArKfx6dNiAE9RJszdljW-37" style="edgeStyle=orthogonalEdgeStyle;curved=0;rounded=1;sketch=0;orthogonalLoop=1;jettySize=auto;html=1;entryX=0.5;entryY=0;entryDx=0;entryDy=0;" parent="1" source="ArKfx6dNiAE9RJszdljW-36" target="ArKfx6dNiAE9RJszdljW-35" edge="1">
          <mxGeometry relative="1" as="geometry" />
        </mxCell>
        <mxCell id="ArKfx6dNiAE9RJszdljW-36" value="&lt;span style=&quot;&quot;&gt;raft/raft.go(thread 5)&lt;/span&gt;" style="rounded=0;whiteSpace=wrap;html=1;" parent="1" vertex="1">
          <mxGeometry x="1265" y="160" width="130" height="40" as="geometry" />
        </mxCell>
        <mxCell id="MvzRaNbtxcJOoFOf6ha5-2" value="阿里云VPC服务" style="text;html=1;align=center;verticalAlign=middle;resizable=0;points=[];autosize=1;strokeColor=none;fillColor=none;" parent="1" vertex="1">
          <mxGeometry x="560" y="1020" width="110" height="30" as="geometry" />
        </mxCell>
        <mxCell id="MvzRaNbtxcJOoFOf6ha5-5" value="" style="edgeStyle=orthogonalEdgeStyle;rounded=0;orthogonalLoop=1;jettySize=auto;html=1;" parent="1" source="MvzRaNbtxcJOoFOf6ha5-3" target="MvzRaNbtxcJOoFOf6ha5-4" edge="1">
          <mxGeometry relative="1" as="geometry" />
        </mxCell>
        <mxCell id="MvzRaNbtxcJOoFOf6ha5-3" value="网络请求" style="rounded=0;whiteSpace=wrap;html=1;" parent="1" vertex="1">
          <mxGeometry x="740" y="1050" width="120" height="30" as="geometry" />
        </mxCell>
        <mxCell id="MvzRaNbtxcJOoFOf6ha5-7" value="" style="edgeStyle=orthogonalEdgeStyle;rounded=0;orthogonalLoop=1;jettySize=auto;html=1;" parent="1" source="MvzRaNbtxcJOoFOf6ha5-4" target="MvzRaNbtxcJOoFOf6ha5-6" edge="1">
          <mxGeometry relative="1" as="geometry" />
        </mxCell>
        <mxCell id="MvzRaNbtxcJOoFOf6ha5-4" value="VUE.JS前端" style="rounded=0;whiteSpace=wrap;html=1;" parent="1" vertex="1">
          <mxGeometry x="620" y="1160" width="360" height="60" as="geometry" />
        </mxCell>
        <mxCell id="MvzRaNbtxcJOoFOf6ha5-9" value="" style="edgeStyle=orthogonalEdgeStyle;rounded=0;orthogonalLoop=1;jettySize=auto;html=1;" parent="1" source="MvzRaNbtxcJOoFOf6ha5-6" target="MvzRaNbtxcJOoFOf6ha5-8" edge="1">
          <mxGeometry relative="1" as="geometry" />
        </mxCell>
        <mxCell id="MvzRaNbtxcJOoFOf6ha5-11" value="" style="edgeStyle=orthogonalEdgeStyle;rounded=0;orthogonalLoop=1;jettySize=auto;html=1;" parent="1" source="MvzRaNbtxcJOoFOf6ha5-6" target="MvzRaNbtxcJOoFOf6ha5-10" edge="1">
          <mxGeometry relative="1" as="geometry" />
        </mxCell>
        <mxCell id="MvzRaNbtxcJOoFOf6ha5-13" value="" style="edgeStyle=orthogonalEdgeStyle;rounded=0;orthogonalLoop=1;jettySize=auto;html=1;" parent="1" source="MvzRaNbtxcJOoFOf6ha5-6" target="MvzRaNbtxcJOoFOf6ha5-12" edge="1">
          <mxGeometry relative="1" as="geometry" />
        </mxCell>
        <mxCell id="MvzRaNbtxcJOoFOf6ha5-6" value="Nginx负载均衡代理" style="rounded=0;whiteSpace=wrap;html=1;" parent="1" vertex="1">
          <mxGeometry x="740" y="1270" width="120" height="30" as="geometry" />
        </mxCell>
        <mxCell id="MvzRaNbtxcJOoFOf6ha5-8" value="JAVA应用程序2&lt;br style=&quot;border-color: var(--border-color);&quot;&gt;（相关功能2）" style="rounded=0;whiteSpace=wrap;html=1;" parent="1" vertex="1">
          <mxGeometry x="740" y="1380" width="120" height="30" as="geometry" />
        </mxCell>
        <mxCell id="MvzRaNbtxcJOoFOf6ha5-10" value="JAVA应用程序1&lt;br&gt;（相关功能1）" style="rounded=0;whiteSpace=wrap;html=1;" parent="1" vertex="1">
          <mxGeometry x="580" y="1380" width="120" height="30" as="geometry" />
        </mxCell>
        <mxCell id="MvzRaNbtxcJOoFOf6ha5-12" value="JAVA应用程序3&lt;br style=&quot;border-color: var(--border-color);&quot;&gt;（相关功能3）" style="rounded=0;whiteSpace=wrap;html=1;" parent="1" vertex="1">
          <mxGeometry x="915" y="1380" width="120" height="30" as="geometry" />
        </mxCell>
        <mxCell id="MvzRaNbtxcJOoFOf6ha5-16" value="SpringCloud微服务架构" style="text;html=1;align=center;verticalAlign=middle;resizable=0;points=[];autosize=1;strokeColor=none;fillColor=none;" parent="1" vertex="1">
          <mxGeometry x="740" y="1430" width="150" height="30" as="geometry" />
        </mxCell>
        <mxCell id="MvzRaNbtxcJOoFOf6ha5-17" value="mysql数据库" style="rounded=0;whiteSpace=wrap;html=1;" parent="1" vertex="1">
          <mxGeometry x="655" y="1590" width="115" height="40" as="geometry" />
        </mxCell>
        <mxCell id="MvzRaNbtxcJOoFOf6ha5-21" value="redis缓存" style="rounded=0;whiteSpace=wrap;html=1;" parent="1" vertex="1">
          <mxGeometry x="845" y="1590" width="115" height="40" as="geometry" />
        </mxCell>
        <mxCell id="MvzRaNbtxcJOoFOf6ha5-22" value="" style="edgeStyle=orthogonalEdgeStyle;rounded=0;orthogonalLoop=1;jettySize=auto;html=1;exitX=0.5;exitY=1;exitDx=0;exitDy=0;entryX=0.5;entryY=0;entryDx=0;entryDy=0;" parent="1" source="MvzRaNbtxcJOoFOf6ha5-14" target="MvzRaNbtxcJOoFOf6ha5-21" edge="1">
          <mxGeometry relative="1" as="geometry">
            <mxPoint x="810" y="1510" as="sourcePoint" />
            <mxPoint x="723" y="1600" as="targetPoint" />
          </mxGeometry>
        </mxCell>
        <mxCell id="MvzRaNbtxcJOoFOf6ha5-26" value="" style="edgeStyle=orthogonalEdgeStyle;rounded=0;orthogonalLoop=1;jettySize=auto;html=1;" parent="1" source="MvzRaNbtxcJOoFOf6ha5-23" target="MvzRaNbtxcJOoFOf6ha5-25" edge="1">
          <mxGeometry relative="1" as="geometry" />
        </mxCell>
        <mxCell id="MvzRaNbtxcJOoFOf6ha5-23" value="" style="rounded=0;whiteSpace=wrap;html=1;fillColor=none;" parent="1" vertex="1">
          <mxGeometry x="585" y="1570" width="490" height="105" as="geometry" />
        </mxCell>
        <mxCell id="MvzRaNbtxcJOoFOf6ha5-24" value="数据处理层" style="text;html=1;align=center;verticalAlign=middle;resizable=0;points=[];autosize=1;strokeColor=none;fillColor=none;" parent="1" vertex="1">
          <mxGeometry x="775" y="1635" width="80" height="30" as="geometry" />
        </mxCell>
        <mxCell id="MvzRaNbtxcJOoFOf6ha5-25" value="衍生，这里可以用纯文字写或者改进，数据层可以用于数据处理。数据处理之后再改进程序" style="rounded=0;whiteSpace=wrap;html=1;fillColor=none;" parent="1" vertex="1">
          <mxGeometry x="1155" y="1570" width="490" height="105" as="geometry" />
        </mxCell>
        <mxCell id="yCG-VpbK-d45540QDOI8-2" value="界面1" style="rounded=0;whiteSpace=wrap;html=1;" parent="1" vertex="1">
          <mxGeometry x="640" y="1175" width="120" height="30" as="geometry" />
        </mxCell>
        <mxCell id="yCG-VpbK-d45540QDOI8-3" value="界面2" style="rounded=0;whiteSpace=wrap;html=1;" parent="1" vertex="1">
          <mxGeometry x="850" y="1175" width="120" height="30" as="geometry" />
        </mxCell>
        <mxCell id="nuF2VadyYRnX8jqY9pPj-1" value="用户服务" style="rounded=0;whiteSpace=wrap;html=1;" vertex="1" parent="1">
          <mxGeometry x="145" y="2375" width="70" height="35" as="geometry" />
        </mxCell>
        <mxCell id="nuF2VadyYRnX8jqY9pPj-3" value="社区服务" style="rounded=0;whiteSpace=wrap;html=1;" vertex="1" parent="1">
          <mxGeometry x="235" y="2375" width="70" height="35" as="geometry" />
        </mxCell>
        <mxCell id="nuF2VadyYRnX8jqY9pPj-8" value="全球&lt;div&gt;mysql&lt;/div&gt;" style="shape=cylinder3;whiteSpace=wrap;html=1;boundedLbl=1;backgroundOutline=1;size=15;" vertex="1" parent="1">
          <mxGeometry x="600" y="2590" width="60" height="80" as="geometry" />
        </mxCell>
        <mxCell id="nuF2VadyYRnX8jqY9pPj-12" value="深度用户信息包含&lt;div style=&quot;font-size: 15px;&quot;&gt;用户id&lt;/div&gt;&lt;div style=&quot;font-size: 15px;&quot;&gt;用户邮箱&lt;/div&gt;&lt;div style=&quot;font-size: 15px;&quot;&gt;用户手机&lt;/div&gt;&lt;div style=&quot;font-size: 15px;&quot;&gt;用户accountid&lt;/div&gt;&lt;div style=&quot;font-size: 15px;&quot;&gt;&lt;br style=&quot;font-size: 15px;&quot;&gt;&lt;/div&gt;" style="text;html=1;align=center;verticalAlign=middle;whiteSpace=wrap;rounded=0;fontStyle=1;fontSize=15;" vertex="1" parent="1">
          <mxGeometry x="20" y="2220" width="210" height="115" as="geometry" />
        </mxCell>
        <mxCell id="nuF2VadyYRnX8jqY9pPj-14" value="新加坡redis" style="rounded=1;whiteSpace=wrap;html=1;" vertex="1" parent="1">
          <mxGeometry x="210" y="2625" width="80" height="30" as="geometry" />
        </mxCell>
        <mxCell id="nuF2VadyYRnX8jqY9pPj-15" value="弗吉尼亚redis" style="rounded=1;whiteSpace=wrap;html=1;" vertex="1" parent="1">
          <mxGeometry x="310" y="2625" width="80" height="30" as="geometry" />
        </mxCell>
        <mxCell id="nuF2VadyYRnX8jqY9pPj-16" value="法兰克福redis" style="rounded=1;whiteSpace=wrap;html=1;" vertex="1" parent="1">
          <mxGeometry x="410" y="2625" width="80" height="30" as="geometry" />
        </mxCell>
        <mxCell id="nuF2VadyYRnX8jqY9pPj-25" value="新加坡" style="text;html=1;align=center;verticalAlign=middle;resizable=0;points=[];autosize=1;strokeColor=none;fillColor=none;fontStyle=1;fontSize=15;" vertex="1" parent="1">
          <mxGeometry x="110" y="2335" width="70" height="30" as="geometry" />
        </mxCell>
        <mxCell id="nuF2VadyYRnX8jqY9pPj-28" value="" style="rounded=0;whiteSpace=wrap;html=1;fillColor=none;" vertex="1" parent="1">
          <mxGeometry x="345" y="2335" width="195" height="85" as="geometry" />
        </mxCell>
        <mxCell id="nuF2VadyYRnX8jqY9pPj-29" value="用户服务" style="rounded=0;whiteSpace=wrap;html=1;" vertex="1" parent="1">
          <mxGeometry x="375" y="2375" width="70" height="35" as="geometry" />
        </mxCell>
        <mxCell id="nuF2VadyYRnX8jqY9pPj-30" value="社区服务" style="rounded=0;whiteSpace=wrap;html=1;" vertex="1" parent="1">
          <mxGeometry x="465" y="2375" width="70" height="35" as="geometry" />
        </mxCell>
        <mxCell id="nuF2VadyYRnX8jqY9pPj-31" value="法兰克福" style="text;html=1;align=center;verticalAlign=middle;resizable=0;points=[];autosize=1;strokeColor=none;fillColor=none;fontStyle=1;fontSize=15;" vertex="1" parent="1">
          <mxGeometry x="345" y="2335" width="80" height="30" as="geometry" />
        </mxCell>
        <mxCell id="nuF2VadyYRnX8jqY9pPj-32" value="" style="rounded=0;whiteSpace=wrap;html=1;fillColor=none;" vertex="1" parent="1">
          <mxGeometry x="570" y="2335" width="195" height="85" as="geometry" />
        </mxCell>
        <mxCell id="nuF2VadyYRnX8jqY9pPj-33" value="用户服务" style="rounded=0;whiteSpace=wrap;html=1;" vertex="1" parent="1">
          <mxGeometry x="600" y="2375" width="70" height="35" as="geometry" />
        </mxCell>
        <mxCell id="nuF2VadyYRnX8jqY9pPj-34" value="社区服务" style="rounded=0;whiteSpace=wrap;html=1;" vertex="1" parent="1">
          <mxGeometry x="690" y="2375" width="70" height="35" as="geometry" />
        </mxCell>
        <mxCell id="nuF2VadyYRnX8jqY9pPj-35" value="弗吉尼亚" style="text;html=1;align=center;verticalAlign=middle;resizable=0;points=[];autosize=1;strokeColor=none;fillColor=none;fontStyle=1;fontSize=15;" vertex="1" parent="1">
          <mxGeometry x="565" y="2335" width="80" height="30" as="geometry" />
        </mxCell>
      </root>
    </mxGraphModel>
  </diagram>
</mxfile>
